REM DIRINDEX 1\2,1\4,1\5,1\6,1\7,1\3\8,1\3\9,1\3\10
REM DIRNAME folder01,folder02,folder03,folder04,folder05,folder06,folder07,folder08,folder09,folder10
TITLE ""
FILE "DB4500_5th_5C_03.mp3" MP3
  TRACK 01 AUDIO
    TITLE "0:"
    INDEX 01 00:00:00
  TRACK 02 AUDIO
    TITLE "8:cjc113_3486"
    INDEX 01 00:00:01
  TRACK 03 AUDIO
    TITLE "0:"
    INDEX 01 00:01:15
  TRACK 04 AUDIO
    TITLE "9:cjc113_3487"
    INDEX 01 00:01:34
  TRACK 05 AUDIO
    TITLE "0:"
    INDEX 01 00:02:55
  TRACK 06 AUDIO
    TITLE "10:cjc113_3488"
    INDEX 01 00:02:67
  TRACK 07 AUDIO
    TITLE "0:"
    INDEX 01 00:05:48
  TRACK 08 AUDIO
    TITLE "8:cjc113_3489"
    INDEX 01 00:06:14
  TRACK 09 AUDIO
    TITLE "0:"
    INDEX 01 00:07:27
  TRACK 10 AUDIO
    TITLE "9:cjc113_3490"
    INDEX 01 00:07:47
  TRACK 11 AUDIO
    TITLE "0:"
    INDEX 01 00:09:55
  TRACK 12 AUDIO
    TITLE "10:cjc113_3491"
    INDEX 01 00:09:71
  TRACK 13 AUDIO
    TITLE "0:"
    INDEX 01 00:13:18
  TRACK 14 AUDIO
    TITLE "8:cjc113_3492"
    INDEX 01 00:13:61
  TRACK 15 AUDIO
    TITLE "0:"
    INDEX 01 00:15:11
  TRACK 16 AUDIO
    TITLE "9:cjc113_3493"
    INDEX 01 00:15:28
  TRACK 17 AUDIO
    TITLE "0:"
    INDEX 01 00:16:53
  TRACK 18 AUDIO
    TITLE "10:cjc113_3494"
    INDEX 01 00:16:63
  TRACK 19 AUDIO
    TITLE "0:"
    INDEX 01 00:19:28
  TRACK 20 AUDIO
    TITLE "8:cjc113_3495"
    INDEX 01 00:19:67
  TRACK 21 AUDIO
    TITLE "0:"
    INDEX 01 00:21:19
  TRACK 22 AUDIO
    TITLE "9:cjc113_3496"
    INDEX 01 00:21:35
  TRACK 23 AUDIO
    TITLE "0:"
    INDEX 01 00:22:66
  TRACK 24 AUDIO
    TITLE "10:cjc113_3497"
    INDEX 01 00:23:04
  TRACK 25 AUDIO
    TITLE "0:"
    INDEX 01 00:26:73
  TRACK 26 AUDIO
    TITLE "8:cjc113_3498"
    INDEX 01 00:27:39
  TRACK 27 AUDIO
    TITLE "0:"
    INDEX 01 00:28:57
  TRACK 28 AUDIO
    TITLE "9:cjc113_3499"
    INDEX 01 00:28:74
  TRACK 29 AUDIO
    TITLE "0:"
    INDEX 01 00:29:66
  TRACK 30 AUDIO
    TITLE "10:cjc113_3500"
    INDEX 01 00:30:10
  TRACK 31 AUDIO
    TITLE "0:"
    INDEX 01 00:32:72
  TRACK 32 AUDIO
    TITLE "8:cjc113_3501"
    INDEX 01 00:33:40
  TRACK 33 AUDIO
    TITLE "0:"
    INDEX 01 00:34:57
  TRACK 34 AUDIO
    TITLE "9:cjc113_3502"
    INDEX 01 00:35:00
  TRACK 35 AUDIO
    TITLE "0:"
    INDEX 01 00:36:29
  TRACK 36 AUDIO
    TITLE "10:cjc113_3503"
    INDEX 01 00:36:48
  TRACK 37 AUDIO
    TITLE "0:"
    INDEX 01 00:39:62
  TRACK 38 AUDIO
    TITLE "8:cjc113_3504"
    INDEX 01 00:40:24
  TRACK 39 AUDIO
    TITLE "0:"
    INDEX 01 00:41:36
  TRACK 40 AUDIO
    TITLE "9:cjc113_3505"
    INDEX 01 00:41:53
  TRACK 41 AUDIO
    TITLE "0:"
    INDEX 01 00:43:17
  TRACK 42 AUDIO
    TITLE "10:cjc113_3506"
    INDEX 01 00:43:39
  TRACK 43 AUDIO
    TITLE "0:"
    INDEX 01 00:47:05
  TRACK 44 AUDIO
    TITLE "8:cjc113_3507"
    INDEX 01 00:47:48
  TRACK 45 AUDIO
    TITLE "0:"
    INDEX 01 00:49:00
  TRACK 46 AUDIO
    TITLE "9:cjc113_3508"
    INDEX 01 00:49:18
  TRACK 47 AUDIO
    TITLE "0:"
    INDEX 01 00:50:60
  TRACK 48 AUDIO
    TITLE "10:cjc113_3509"
    INDEX 01 00:50:74
  TRACK 49 AUDIO
    TITLE "0:"
    INDEX 01 00:55:26
  TRACK 50 AUDIO
    TITLE "8:cjc113_3510"
    INDEX 01 00:55:71
  TRACK 51 AUDIO
    TITLE "0:"
    INDEX 01 00:57:33
  TRACK 52 AUDIO
    TITLE "9:cjc113_3511"
    INDEX 01 00:57:45
  TRACK 53 AUDIO
    TITLE "0:"
    INDEX 01 00:59:02
  TRACK 54 AUDIO
    TITLE "10:cjc113_3512"
    INDEX 01 00:59:14
  TRACK 55 AUDIO
    TITLE "0:"
    INDEX 01 01:02:44
  TRACK 56 AUDIO
    TITLE "8:cjc113_3513"
    INDEX 01 01:03:02
  TRACK 57 AUDIO
    TITLE "0:"
    INDEX 01 01:04:21
  TRACK 58 AUDIO
    TITLE "9:cjc113_3514"
    INDEX 01 01:04:29
  TRACK 59 AUDIO
    TITLE "0:"
    INDEX 01 01:05:42
  TRACK 60 AUDIO
    TITLE "10:cjc113_3515"
    INDEX 01 01:05:52
  TRACK 61 AUDIO
    TITLE "0:"
    INDEX 01 01:08:44
  TRACK 62 AUDIO
    TITLE "8:cjc113_3516"
    INDEX 01 01:09:01
  TRACK 63 AUDIO
    TITLE "0:"
    INDEX 01 01:11:64
  TRACK 64 AUDIO
    TITLE "9:cjc113_3517"
    INDEX 01 01:11:70
  TRACK 65 AUDIO
    TITLE "0:"
    INDEX 01 01:13:30
  TRACK 66 AUDIO
    TITLE "10:cjc113_3518"
    INDEX 01 01:13:38
  TRACK 67 AUDIO
    TITLE "0:"
    INDEX 01 01:17:24
  TRACK 68 AUDIO
    TITLE "8:cjc113_3519"
    INDEX 01 01:17:57
  TRACK 69 AUDIO
    TITLE "0:"
    INDEX 01 01:18:58
  TRACK 70 AUDIO
    TITLE "9:cjc113_3520"
    INDEX 01 01:18:66
  TRACK 71 AUDIO
    TITLE "0:"
    INDEX 01 01:19:62
  TRACK 72 AUDIO
    TITLE "10:cjc113_3521"
    INDEX 01 01:19:70
  TRACK 73 AUDIO
    TITLE "0:"
    INDEX 01 01:24:02
  TRACK 74 AUDIO
    TITLE "8:cjc113_3522"
    INDEX 01 01:24:36
  TRACK 75 AUDIO
    TITLE "0:"
    INDEX 01 01:25:60
  TRACK 76 AUDIO
    TITLE "9:cjc113_3523"
    INDEX 01 01:25:66
  TRACK 77 AUDIO
    TITLE "0:"
    INDEX 01 01:27:24
  TRACK 78 AUDIO
    TITLE "10:cjc113_3524"
    INDEX 01 01:27:34
  TRACK 79 AUDIO
    TITLE "0:"
    INDEX 01 01:30:60
